{
  "accessors": [
    {
      "bufferView": 2,
      "componentType": 5126,
      "count": 65532,
      "max": [
        0.22018399834632874,
        -7.6788330078125,
        1.2818599939346313
      ],
      "min": [
        -0.38638100028038025,
        -8.3011970520019531,
        -0.33586499094963074
      ],
      "type": "VEC3"
    },
    {
      "bufferView": 2,
      "byteOffset": 786384,
      "componentType": 5126,
      "count": 65532,
      "max": [
        0.9999692440032959,
        0.99998974800109863,
        0.99996024370193481
      ],
      "min": [
        -0.99996525049209595,
        -0.99997234344482422,
        -0.9999813437461853
      ],
      "type": "VEC3"
    },
    {
      "bufferView": 1,
      "componentType": 5126,
      "count": 65532,
      "max": [
        0.99466401338577271,
        1.000432014465332
      ],
      "min": [
        0.0034370000939816236,
        0.0029019999783486128
      ],
      "type": "VEC2"
    },
    {
      "bufferView": 0,
      "componentType": 5125,
      "count": 330441,
      "max": [
        65531
      ],
      "min": [
        0
      ],
      "type": "SCALAR"
    },
    {
      "bufferView": 2,
      "byteOffset": 1572768,
      "componentType": 5126,
      "count": 55206,
      "max": [
        0.23316499590873718,
        -7.7956361770629883,
        1.2790119647979736
      ],
      "min": [
        -0.32380899786949158,
        -8.3143224716186523,
        -0.32529100775718689
      ],
      "type": "VEC3"
    },
    {
      "bufferView": 2,
      "byteOffset": 2235240,
      "componentType": 5126,
      "count": 55206,
      "max": [
        0.99999988079071045,
        0.99999845027923584,
        0.99999523162841797
      ],
      "min": [
        -0.99994790554046631,
        -0.99997633695602417,
        -0.99988549947738647
      ],
      "type": "VEC3"
    },
    {
      "bufferView": 1,
      "byteOffset": 524256,
      "componentType": 5126,
      "count": 55206,
      "max": [
        0.99497997760772705,
        0.99981898069381714
      ],
      "min": [
        0.007592999842017889,
        0.0028220000676810741
      ],
      "type": "VEC2"
    },
    {
      "bufferView": 0,
      "byteOffset": 1321764,
      "componentType": 5125,
      "count": 269559,
      "max": [
        55205
      ],
      "min": [
        0
      ],
      "type": "SCALAR"
    }
  ],
  "asset": {
    "extras": {
      "author": "roiwizard (https://sketchfab.com/roiwizard)",
      "license": "CC-BY-4.0 (http://creativecommons.org/licenses/by/4.0/)",
      "source": "https://sketchfab.com/3d-models/new-weed-model-1d254948d7e74c638f52293f6574cc77",
      "title": "NEW WEED MODEL"
    },
    "generator": "Sketchfab-9.19.0",
    "version": "2.0"
  },
  "bufferViews": [
    {
      "buffer": 0,
      "byteLength": 2400000,
      "byteOffset": 0,
      "name": "floatBufferViews",
      "target": 34963
    },
    {
      "buffer": 0,
      "byteLength": 965904,
      "byteOffset": 2400000,
      "byteStride": 8,
      "name": "floatBufferViews",
      "target": 34962
    },
    {
      "buffer": 0,
      "byteLength": 2897712,
      "byteOffset": 3365904,
      "byteStride": 12,
      "name": "floatBufferViews",
      "target": 34962
    }
  ],
  "buffers": [
    {
      "byteLength": 6263616,
      "uri": "scene.bin"
    }
  ],
  "extensionsUsed": [
    "KHR_materials_unlit"
  ],
  "images": [
    {
      "uri": "textures/5.1001_baseColor.jpeg"
    }
  ],
  "materials": [
    {
      "doubleSided": true,
      "emissiveFactor": [
        0,
        0,
        0
      ],
      "extensions": {
        "KHR_materials_unlit": {}
      },
      "name": "5.1001",
      "pbrMetallicRoughness": {
        "baseColorFactor": [
          1,
          1,
          1,
          1
        ],
        "baseColorTexture": {
          "index": 0,
          "texCoord": 0
        },
        "metallicFactor": 0,
        "roughnessFactor": 1
      }
    }
  ],
  "meshes": [
    {
      "primitives": [
        {
          "attributes": {
            "NORMAL": 1,
            "POSITION": 0,
            "TEXCOORD_0": 2
          },
          "indices": 3,
          "material": 0,
          "mode": 4
        }
      ]
    },
    {
      "primitives": [
        {
          "attributes": {
            "NORMAL": 5,
            "POSITION": 4,
            "TEXCOORD_0": 6
          },
          "indices": 7,
          "material": 0,
          "mode": 4
        }
      ]
    }
  ],
  "nodes": [
    {
      "children": [
        1
      ],
      "name": "RootNode (gltf orientation matrix)",
      "rotation": [
        -0.70710678118654746,
        -0,
        -0,
        0.70710678118654757
      ]
    },
    {
      "children": [
        2
      ],
      "matrix": [
        0.0226263627409935,
        0.89295321702957153,
        -0.44958046078681946,
        0,
        0.99659115076065063,
        -0.055831793695688248,
        -0.060736510902643204,
        0,
        -0.07933574914932251,
        -0.44667366147041321,
        -0.89117252826690674,
        0,
        7.9319663047790527,
        -8.1633548736572266,
        0.37439557909965515,
        1
      ],
      "name": "RootNode (model correction matrix)"
    },
    {
      "children": [
        3,
        4
      ],
      "name": "5.obj.cleaner.materialmerger.gles"
    },
    {
      "mesh": 0,
      "name": ""
    },
    {
      "mesh": 1,
      "name": ""
    }
  ],
  "samplers": [
    {
      "magFilter": 9729,
      "minFilter": 9987,
      "wrapS": 10497,
      "wrapT": 10497
    }
  ],
  "scene": 0,
  "scenes": [
    {
      "name": "OSG_Scene",
      "nodes": [
        0
      ]
    }
  ],
  "textures": [
    {
      "sampler": 0,
      "source": 0
    }
  ]
}

